<svg
  fill="none"
  height="32"
  xmlns="http://www.w3.org/2000/svg"
  viewBox="0 0 64 64"
  width="32"
>
  <g>
    <circle class="fill-foreground" cx="32" cy="32" r="32"></circle>
    <g>
      <path
        class="fill-background"
        d="M34.956 22.04C34.86 19.928 34.172 18.184 32.892 16.808C31.644 15.4 29.852 14.696 27.516 14.696C26.428 14.696 25.42 14.904 24.492 15.32C23.564 15.704 22.748 16.248 22.044 16.952C21.34 17.624 20.78 18.408 20.364 19.304C19.948 20.168 19.708 21.08 19.644 22.04H34.956ZM38.268 23.096C38.268 23.32 38.268 23.56 38.268 23.816C38.268 24.072 38.252 24.344 38.22 24.632H19.596C19.628 25.752 19.852 26.808 20.268 27.8C20.684 28.792 21.26 29.656 21.996 30.392C22.732 31.128 23.596 31.72 24.588 32.168C25.58 32.584 26.652 32.792 27.804 32.792C29.5 32.792 30.956 32.408 32.172 31.64C33.42 30.84 34.364 29.928 35.004 28.904L37.452 30.824C36.108 32.52 34.62 33.736 32.988 34.472C31.388 35.208 29.66 35.576 27.804 35.576C26.14 35.576 24.588 35.288 23.148 34.712C21.74 34.104 20.524 33.272 19.5 32.216C18.476 31.16 17.66 29.912 17.052 28.472C16.476 27.032 16.188 25.464 16.188 23.768C16.188 22.072 16.476 20.504 17.052 19.064C17.628 17.624 18.428 16.376 19.452 15.32C20.476 14.264 21.676 13.448 23.052 12.872C24.428 12.264 25.916 11.96 27.516 11.96C29.276 11.96 30.828 12.264 32.172 12.872C33.516 13.448 34.636 14.248 35.532 15.272C36.428 16.264 37.1 17.432 37.548 18.776C38.028 20.12 38.268 21.56 38.268 23.096Z"
      ></path>
      <rect class="fill-foreground" x="32" y="28" width="6" height="7"></rect>
      <path
        class="fill-background"
        d="M43.772 34.864C43.292 33.936 42.556 33.184 41.564 32.608C40.604 32 39.5 31.696 38.252 31.696C37.676 31.696 37.1 31.76 36.524 31.888C35.948 32.016 35.436 32.224 34.988 32.512C34.54 32.8 34.172 33.168 33.884 33.616C33.628 34.064 33.5 34.592 33.5 35.2C33.5 36.256 33.932 37.072 34.796 37.648C35.66 38.192 37.02 38.656 38.876 39.04C41.532 39.584 43.484 40.384 44.732 41.44C46.012 42.464 46.652 43.856 46.652 45.616C46.652 46.896 46.396 47.984 45.884 48.88C45.404 49.744 44.764 50.464 43.964 51.04C43.164 51.584 42.252 51.968 41.228 52.192C40.236 52.448 39.228 52.576 38.204 52.576C36.508 52.576 34.86 52.224 33.26 51.52C31.66 50.816 30.348 49.712 29.324 48.208L31.916 46.288C32.492 47.28 33.34 48.112 34.46 48.784C35.58 49.456 36.812 49.792 38.156 49.792C38.86 49.792 39.532 49.728 40.172 49.6C40.812 49.472 41.372 49.248 41.852 48.928C42.332 48.608 42.716 48.208 43.004 47.728C43.292 47.216 43.436 46.592 43.436 45.856C43.436 44.672 42.86 43.792 41.708 43.216C40.588 42.608 38.956 42.048 36.812 41.536C36.14 41.376 35.42 41.184 34.652 40.96C33.916 40.704 33.228 40.352 32.588 39.904C31.948 39.424 31.42 38.832 31.004 38.128C30.588 37.424 30.38 36.544 30.38 35.488C30.38 34.336 30.604 33.36 31.052 32.56C31.5 31.728 32.092 31.056 32.828 30.544C33.596 30 34.46 29.6 35.42 29.344C36.38 29.088 37.372 28.96 38.396 28.96C39.964 28.96 41.484 29.312 42.956 30.016C44.428 30.72 45.532 31.712 46.268 32.992L43.772 34.864Z"
      ></path>
    </g>
  </g>
      <style>
        .fill-foreground { fill: #231f20; }
        .fill-background { fill: #f3f6fA; }

        @media (prefers-color-scheme: dark) {
        .fill-background { fill: #231f20; }
        .fill-foreground { fill: #f3f6fA; }
        }
    </style>
</svg>
